<?xml version="1.0" standalone="no"?>
<!DOCTYPE svg PUBLIC "-//W3C//DTD SVG 20010904//EN"
 "http://www.w3.org/TR/2001/REC-SVG-20010904/DTD/svg10.dtd">
<svg version="1.0" xmlns="http://www.w3.org/2000/svg"
 width="115.000000pt" height="34.000000pt" viewBox="0 0 115.000000 34.000000"
 preserveAspectRatio="xMidYMid meet">

<g transform="translate(0.000000,34.000000) scale(0.100000,-0.100000)"
fill="#000000" stroke="none">
<path d="M60 260 c0 -83 17 -112 22 -37 3 37 6 42 28 42 22 0 25 -5 28 -42 4
-56 22 -55 22 1 0 50 -18 71 -55 64 -22 -5 -25 -2 -25 23 0 16 -4 29 -10 29
-6 0 -10 -33 -10 -80z"/>
<path d="M480 265 c0 -59 3 -77 16 -82 8 -3 20 -1 27 6 8 8 7 11 -6 11 -14 0
-17 10 -17 64 0 36 -4 68 -10 71 -6 4 -10 -22 -10 -70z"/>
<path d="M200 311 c0 -10 -6 -22 -12 -24 -10 -4 -10 -8 -1 -14 6 -4 13 -26 15
-48 3 -37 5 -40 36 -43 18 -2 32 1 32 7 0 6 -11 11 -25 11 -22 0 -25 4 -25 35
0 31 3 35 25 35 14 0 25 5 25 10 0 6 -11 10 -25 10 -15 0 -25 6 -25 14 0 8 -4
18 -10 21 -5 3 -10 -3 -10 -14z"/>
<path d="M290 233 c0 -63 18 -72 22 -10 2 34 7 42 23 42 16 0 21 -8 23 -42 2
-24 7 -43 12 -43 5 0 10 19 12 43 2 34 7 42 23 42 16 0 21 -8 23 -42 2 -24 8
-43 13 -43 6 0 9 20 7 46 -4 55 -26 77 -58 57 -11 -8 -21 -9 -25 -3 -3 5 -21
9 -40 8 l-35 -1 0 -54z"/>
<path d="M0 195 c0 -9 5 -15 11 -13 14 5 14 21 0 26 -6 2 -11 -4 -11 -13z"/>
<path d="M690 170 c0 -28 -2 -30 -20 -20 -28 15 -59 3 -71 -27 -16 -43 24 -88
66 -73 11 4 26 5 33 3 9 -4 12 14 12 71 0 44 -4 76 -10 76 -5 0 -10 -14 -10
-30z m-16 -46 c18 -18 18 -17 10 -38 -4 -10 -18 -16 -35 -16 -25 0 -29 4 -29
29 0 26 9 38 32 40 4 1 14 -6 22 -15z"/>
<path d="M217 142 c-20 -22 -22 -65 -3 -81 7 -6 32 -10 55 -9 l41 1 0 48 c0
26 -4 51 -10 54 -5 3 -10 1 -10 -6 0 -10 -3 -10 -12 -1 -17 17 -42 15 -61 -6z
m63 -17 c20 -25 8 -50 -25 -50 -21 0 -31 5 -33 18 -4 21 14 47 33 47 7 0 18
-7 25 -15z"/>
<path d="M350 140 c-37 -37 -16 -92 34 -92 29 0 65 26 53 39 -4 3 -13 1 -19
-5 -17 -17 -55 -15 -62 4 -10 25 -7 33 15 44 16 9 25 8 40 -6 25 -23 37 -10
14 16 -23 25 -50 25 -75 0z"/>
<path d="M482 144 c-25 -17 -30 -65 -8 -83 7 -6 32 -10 55 -9 l41 1 0 55 c0
46 -2 53 -14 43 -10 -8 -16 -9 -21 -1 -9 14 -27 13 -53 -6z m58 -19 c20 -25 8
-50 -25 -50 -21 0 -31 5 -33 18 -4 21 14 47 33 47 7 0 18 -7 25 -15z"/>
<path d="M752 144 c-49 -34 -5 -115 51 -95 32 12 34 33 3 25 -14 -3 -34 -3
-43 2 -13 6 -6 9 26 13 51 7 61 21 32 50 -25 25 -39 26 -69 5z m56 -21 c2 -9
-7 -13 -28 -13 -28 0 -31 2 -20 15 15 18 41 16 48 -2z"/>
<path d="M864 151 c-9 -9 -3 -101 6 -101 6 0 10 15 10 34 0 35 21 63 40 51 5
-3 10 -24 10 -46 0 -21 5 -39 10 -39 6 0 10 15 10 34 0 35 21 63 40 51 5 -3
10 -24 10 -46 0 -21 5 -39 10 -39 6 0 10 20 10 44 0 54 -19 74 -55 58 -14 -7
-27 -7 -30 -2 -5 9 -62 9 -71 1z"/>
<path d="M1040 152 c0 -6 9 -31 20 -57 11 -26 20 -51 20 -56 0 -5 -9 -9 -20
-9 -11 0 -20 -5 -20 -11 0 -6 12 -9 27 -7 22 3 31 13 54 70 15 38 24 70 18 73
-5 4 -14 -6 -20 -22 -6 -15 -14 -37 -18 -48 -7 -17 -10 -14 -20 17 -12 36 -41
71 -41 50z"/>
</g>
</svg>
